<?xml version="1.0" standalone="no"?>
<!DOCTYPE svg PUBLIC "-//W3C//DTD SVG 20010904//EN"
 "http://www.w3.org/TR/2001/REC-SVG-20010904/DTD/svg10.dtd">
<svg version="1.0" xmlns="http://www.w3.org/2000/svg"
 width="453.000000pt" height="453.000000pt" viewBox="0 0 453.000000 453.000000"
 preserveAspectRatio="xMidYMid meet">
<metadata>
Created by potrace 1.14, written by Peter Selinger 2001-2017
</metadata>
<g transform="translate(0.000000,453.000000) scale(0.100000,-0.100000)"
fill="#000000" stroke="none">
<path d="M2 2295 l1 -1335 903 0 904 0 0 325 0 325 -510 0 -510 0 0 195 0 195
430 0 430 0 0 305 0 305 -292 0 c-161 -1 -355 -1 -430 0 l-138 0 0 185 0 185
490 0 490 0 0 325 0 325 -884 0 -884 0 0 -1335z"/>
<path d="M2156 2808 c1 -753 5 -947 19 -1018 3 -14 8 -41 11 -60 12 -84 65
-233 112 -320 148 -274 426 -442 807 -488 79 -9 394 -9 470 1 175 22 324 66
452 133 237 125 398 347 464 639 11 52 13 61 25 135 4 25 8 440 9 923 l2 877
-394 0 c-367 0 -393 -1 -394 -17 0 -10 -1 -367 -1 -793 -1 -833 -3 -861 -53
-959 -60 -118 -167 -175 -335 -179 -224 -6 -363 106 -395 318 -4 25 -7 402 -7
838 l0 792 -397 0 -396 0 1 -822z"/>
</g>
</svg>
